<?xml version="1.0" encoding="UTF-8"?>
<svg xmlns="http://www.w3.org/2000/svg" viewBox="0 0 1024 1024">
  <path
    d="M164 258 C210 188 305 170 382 210 C437 238 474 286 536 292 C616 300 652 342 702 389 C758 442 842 459 864 538 C884 610 829 677 752 688 C679 699 634 647 570 632 C495 615 463 554 398 539 C320 521 270 469 217 436 C153 396 127 317 164 258 Z"
    fill="#FFFFFF"
  />
  <path d="M132 750 C286 679 410 660 514 555 C626 441 711 323 884 252" fill="none" stroke="#FFFFFF" stroke-width="30" />
  <path d="M128 580 C256 608 372 564 483 590 C604 618 724 568 892 618" fill="none" stroke="#FFFFFF" stroke-width="22" />
  <path d="M724 620 L648 800 L726 763 L803 806 Z" fill="#FFFFFF" />
</svg>
